<svg width="46" height="47" viewBox="0 0 46 47" fill="none" xmlns="http://www.w3.org/2000/svg">
<path d="M12.3099 0.579596C11.2049 0.947918 10.3785 1.80135 10.0551 2.92428C9.86641 3.59804 9.86641 43.305 10.0551 43.9788C10.3875 45.1197 11.2229 45.9731 12.3548 46.3325C12.8759 46.4942 33.1246 46.4942 33.6457 46.3325C34.7776 45.9731 35.6131 45.1197 35.9455 43.9788C36.1341 43.305 36.1341 3.59804 35.9455 2.92428C35.6131 1.78338 34.7776 0.929951 33.6457 0.570612C33.1426 0.40891 12.786 0.417893 12.3099 0.579596ZM23.4584 3.05005C23.7818 3.38244 23.7908 3.6789 23.4854 3.99332L23.2428 4.22689H21.4551C19.6764 4.22689 19.6674 4.22689 19.4518 4.0023C19.2092 3.76873 19.1643 3.37346 19.344 3.13989C19.5865 2.83445 19.8021 2.79852 21.5 2.78953H23.1979L23.4584 3.05005ZM26.3511 2.89733C26.8182 3.13989 26.9081 3.64296 26.5487 4.0023C26.3601 4.19994 26.2523 4.22689 25.6953 4.22689C25.1383 4.22689 25.0305 4.19994 24.8419 4.0023C24.4825 3.65195 24.5634 3.13989 25.0215 2.89733C25.2641 2.76258 26.1085 2.76258 26.3511 2.89733ZM34.4991 21.1607V35.6691H23.0003H11.5014V21.1607V6.65243H23.0003H34.4991V21.1607ZM24.2579 38.3731C26.5487 39.4511 26.5577 42.6492 24.2759 43.7722C23.7639 44.0237 23.5932 44.0686 23.0003 44.0686C22.4073 44.0686 22.2367 44.0237 21.7246 43.7722C20.2244 43.0355 19.5955 41.3107 20.2962 39.8644C20.7005 39.0379 21.0958 38.6426 21.8863 38.3102C22.605 38.0138 23.5393 38.0407 24.2579 38.3731Z" fill="#0093D4"/>
<path d="M22.3713 39.6308C21.5808 39.9453 21.2124 40.9873 21.6077 41.8138C21.985 42.6044 23.108 42.8918 23.8716 42.3888C24.8957 41.715 24.734 40.0531 23.602 39.6308C23.2876 39.514 22.6767 39.514 22.3713 39.6308Z" fill="#0093D4"/>
<path d="M2.29319 4.24487C1.25111 5.31391 0.469547 6.87703 0.128174 8.54796C-0.0964127 9.65293 -0.00657789 11.6293 0.307844 12.6983C0.846853 14.522 2.24828 16.6151 3.01187 16.7589C3.40714 16.8307 3.83835 16.5343 3.91022 16.148C3.98209 15.7707 3.88327 15.5641 3.35324 14.9711C2.7783 14.3333 2.30218 13.4709 1.96979 12.4917C1.72723 11.764 1.67333 11.4766 1.6374 10.5153C1.59248 9.19477 1.78113 8.19761 2.29319 7.14654C2.5627 6.5716 2.79627 6.23022 3.71258 5.05339C4.03599 4.64015 4.027 4.28979 3.69462 3.94842C3.25443 3.51721 2.94899 3.5801 2.29319 4.24487Z" fill="#0093D4"/>
<path d="M42.3056 3.94842C41.9732 4.28979 41.9642 4.64015 42.2966 5.05339C43.2039 6.23022 43.4375 6.5716 43.707 7.13755C44.7581 9.32952 44.5604 12.2132 43.2129 14.2165C43.0063 14.531 42.7009 14.9262 42.5392 15.0969C42.1259 15.5461 42.0181 15.7886 42.09 16.148C42.1619 16.5343 42.5931 16.8307 42.9883 16.7589C43.7519 16.6151 45.1533 14.522 45.6924 12.6983C46.0068 11.6293 46.0966 9.65293 45.872 8.54796C45.5307 6.87703 44.7491 5.31391 43.707 4.24487C43.0512 3.5801 42.7458 3.51721 42.3056 3.94842Z" fill="#0093D4"/>
<path d="M5.53617 5.77207C5.17683 6.14938 4.85342 6.61652 4.60188 7.11061C4.05389 8.20659 3.91016 8.82645 3.91016 10.156C3.91016 11.3688 4.08084 12.1234 4.55697 13.0756C4.86241 13.6775 5.5182 14.5938 5.80567 14.8184C6.28179 15.1957 7.00946 14.9801 7.15319 14.4232C7.22506 14.1177 7.13523 13.9111 6.73097 13.417C6.20094 12.7792 5.69787 11.7191 5.5721 10.9555C5.31158 9.43733 5.7338 8.08083 6.89267 6.66144C7.37778 6.06853 7.15319 5.35883 6.43451 5.24205C6.11111 5.18815 6.07517 5.2151 5.53617 5.77207Z" fill="#0093D4"/>
<path d="M39.2963 5.52054C38.9819 5.65529 38.7663 6.0865 38.8472 6.4099C38.8741 6.52669 39.0987 6.86806 39.3412 7.16451C40.3923 8.4761 40.7337 9.99431 40.3384 11.5395C40.1318 12.357 39.8264 12.9499 39.2873 13.5787C38.8292 14.1177 38.7483 14.3693 38.91 14.7466C39.0358 15.07 39.5029 15.3125 39.8443 15.2227C40.1138 15.1598 40.6708 14.5579 41.111 13.8752C42.2429 12.1054 42.4405 9.80566 41.632 7.82031C41.2098 6.76924 40.4372 5.73614 39.9162 5.52054C39.5748 5.3768 39.6377 5.3768 39.2963 5.52054Z" fill="#0093D4"/>
</svg>
