<svg width="22" height="47" viewBox="0 0 22 47" fill="none" xmlns="http://www.w3.org/2000/svg">
<path d="M20.1175 0.759205L19.812 1.06467V3.54436V6.02405H11.6812C2.87646 6.02405 3.19092 6.00608 2.66982 6.50022C2.1667 6.96741 2.11279 7.21897 2.11279 9.16858V10.9655H1.07959H0.0463867V13.0319V15.0983H1.07959H2.11279V30.1201V45.142L2.30146 45.5373C2.43623 45.7979 2.63389 46.0225 2.9124 46.1932L3.3167 46.4537L12.0854 46.4358L20.8542 46.4088L21.1687 46.1932C21.3394 46.0764 21.5819 45.8338 21.7077 45.6541L21.9233 45.3307L21.9503 23.4537C21.9593 11.4237 21.9503 1.44202 21.9233 1.27131C21.8874 1.09163 21.7437 0.849049 21.5909 0.705299C21.3663 0.498658 21.2405 0.453736 20.8722 0.453736C20.4769 0.453736 20.387 0.489674 20.1175 0.759205ZM19.1651 22.124L19.1382 26.1041L12.0226 26.1311L4.89795 26.149V22.151V18.153H12.0405H19.1831L19.1651 22.124Z" fill="#0093D4"/>
</svg>
