<svg width="56" height="47" viewBox="0 0 56 47" fill="none" xmlns="http://www.w3.org/2000/svg">
<path d="M22.5508 0.553491C13.2594 1.08911 7.08335 3.36278 3.65099 7.49474C1.43197 10.1729 0.306071 13.321 0.0765177 17.5404L0 18.9068L5.78255 18.8849L11.5651 18.8521L11.6853 17.8574C11.9914 15.3979 12.7238 13.4194 13.8497 11.9983C15.1286 10.3915 17.3367 9.40768 20.4193 9.06881C21.2173 8.98136 23.4691 8.93764 27.1856 8.94857C36.0508 8.97043 37.9309 9.16719 40.1936 10.3587C41.9754 11.2878 43.145 12.9056 43.8118 15.3433C44.0305 16.1522 44.3912 18.2728 44.413 18.8194C44.413 18.874 47.0256 18.9068 50.2065 18.9068H56V18.2072C56 17.1797 55.8032 15.3979 55.5518 14.2064C54.8085 10.5773 53.0267 7.58218 50.3705 5.51621C46.5555 2.54295 41.254 1.00167 33.2196 0.54256C31.0115 0.422317 24.7699 0.422317 22.5508 0.553491Z" fill="#0093D4"/>
<path d="M17.1289 14.9497C16.0248 15.07 15.992 15.1356 15.992 17.0922V18.7428L15.4236 19.3987C12.2973 22.9841 5.41074 32.3411 4.35043 34.4399L4.07715 34.9646V40.1896C4.07715 45.207 4.08808 45.4256 4.29577 45.7754C4.41601 45.9722 4.66743 46.2236 4.86419 46.3439C5.22491 46.5625 5.4654 46.5625 27.4478 46.5625C52.2068 46.5625 50.1626 46.6281 50.6655 45.8082C50.9169 45.4147 50.9169 45.4038 50.9497 40.2552L50.9825 35.0958L50.6873 34.5164C49.6489 32.4614 43.0028 23.4104 39.8546 19.7704L38.9473 18.71V17.0922C38.9473 16.1959 38.9036 15.4089 38.8599 15.3433C38.685 15.0809 38.2805 14.9825 37.0344 14.917C35.4494 14.8295 33.8644 14.9825 33.602 15.234C33.4599 15.3761 33.4162 15.6931 33.3943 16.7752L33.3506 18.1416H27.4588H21.5778L21.545 16.7643C21.5013 14.9497 21.556 14.9935 19.3807 14.9279C18.5062 14.906 17.4896 14.917 17.1289 14.9497ZM21.6762 22.6999C22.0479 22.9185 22.4414 23.5853 22.4414 23.9898C22.4414 24.3942 22.0479 25.061 21.6762 25.2796C21.2499 25.531 20.5284 25.5201 20.0912 25.2468C19.6977 25.0064 19.3807 24.4489 19.3807 23.9898C19.3807 23.5962 19.7633 22.9294 20.124 22.6999C20.5066 22.4703 21.2827 22.4594 21.6762 22.6999ZM28.3879 22.842C29.1531 23.5088 29.1531 24.4598 28.3988 25.1266C27.4478 25.9574 25.9393 25.2687 25.9393 24.0116C25.9393 23.1262 26.5733 22.5141 27.4916 22.5141C27.9069 22.5141 28.0818 22.5797 28.3879 22.842ZM34.6951 22.678C35.6462 23.1809 35.7008 24.6019 34.7935 25.2468C34.4219 25.5092 33.6567 25.5638 33.2741 25.3671C32.8697 25.1485 32.4871 24.5254 32.4761 24.0663C32.4652 22.8967 33.6567 22.1533 34.6951 22.678ZM21.4576 28.0452C22.5507 28.4824 22.7475 29.7614 21.8402 30.6031C21.5997 30.8326 21.4357 30.8764 20.911 30.8764C20.3863 30.8764 20.2224 30.8326 19.9819 30.6031C19.0965 29.7723 19.2495 28.559 20.3098 28.078C20.8454 27.8266 20.911 27.8266 21.4576 28.0452ZM28.2677 28.1764C28.683 28.4278 29.0438 29.182 28.9454 29.6411C28.6503 31.0513 26.9341 31.401 26.147 30.2096C25.7426 29.5974 25.9503 28.6573 26.5624 28.2201C27.098 27.8375 27.6555 27.8266 28.2677 28.1764ZM34.3672 27.9796C35.5915 28.3185 35.8429 30.0565 34.7607 30.7124C33.7332 31.3464 32.498 30.614 32.498 29.3788C32.498 28.6245 33.0664 28.0233 33.919 27.8812C33.9518 27.8703 34.1486 27.925 34.3672 27.9796ZM21.7309 33.5982C22.6491 34.1994 22.6272 35.5221 21.6871 36.1451C20.6924 36.8119 19.2932 35.9702 19.4135 34.7678C19.5337 33.6201 20.7908 32.9861 21.7309 33.5982ZM28.1365 33.5654C28.694 33.8496 29.0438 34.5492 28.9345 35.1504C28.8361 35.6751 28.2786 36.2545 27.7648 36.3419C27.2073 36.4512 26.8685 36.3419 26.4094 35.9265C25.6442 35.2269 25.8519 34.0136 26.8138 33.5326C27.3057 33.2812 27.6009 33.2812 28.1365 33.5654ZM34.4984 33.4889C35.0777 33.7294 35.4494 34.2541 35.4494 34.8334C35.4494 36.014 34.3563 36.7136 33.296 36.2107C32.4761 35.8281 32.2247 34.6694 32.7931 33.9808C33.0883 33.631 33.602 33.3468 33.9518 33.3358C34.0611 33.3358 34.3016 33.4014 34.4984 33.4889Z" fill="#0093D4"/>
<path d="M0.0327148 20.7869C0.0436459 22.0658 0.546476 23.0278 1.45376 23.5306C2.27359 23.9897 2.99504 24.0662 6.20878 24.0225C9.40066 23.9788 9.65208 23.9351 10.5047 23.312C11.1059 22.8638 11.6197 21.5302 11.6197 20.4153V20.1092H5.8262H0.0327148V20.7869Z" fill="#0093D4"/>
<path d="M44.4131 20.623C44.4131 20.9072 44.5005 21.4319 44.5989 21.7926C44.8285 22.6125 45.4406 23.2683 46.2276 23.5416C47.5831 24.0226 52.9831 23.9898 54.2729 23.4979C55.366 23.0934 56 22.055 56 20.6886V20.1092H50.2066H44.4131V20.623Z" fill="#0093D4"/>
</svg>
